<mxfile host="app.diagrams.net" agent="Mozilla/5.0 (Windows NT 10.0; Win64; x64) AppleWebKit/537.36 (KHTML, like Gecko) Chrome/131.0.0.0 Safari/537.36" version="25.0.3">
  <diagram name="페이지-1" id="nZ3mANGOgruwImZZxQJz">
    <mxGraphModel grid="0" page="0" gridSize="10" guides="1" tooltips="1" connect="1" arrows="1" fold="1" pageScale="1" pageWidth="827" pageHeight="1169" math="0" shadow="0">
      <root>
        <mxCell id="0" />
        <mxCell id="1" parent="0" />
        <mxCell id="sssU09j3JpJJPiTPpSoP-23" value="" style="edgeStyle=none;curved=1;rounded=0;orthogonalLoop=1;jettySize=auto;html=1;fontSize=12;startSize=8;endSize=8;" edge="1" parent="1" source="sssU09j3JpJJPiTPpSoP-1" target="sssU09j3JpJJPiTPpSoP-41">
          <mxGeometry relative="1" as="geometry" />
        </mxCell>
        <mxCell id="sssU09j3JpJJPiTPpSoP-1" value="Flush가 있는가?" style="rhombus;whiteSpace=wrap;html=1;" vertex="1" parent="1">
          <mxGeometry x="235" y="-152" width="200" height="80" as="geometry" />
        </mxCell>
        <mxCell id="sssU09j3JpJJPiTPpSoP-2" value="Flush에 맞춰서&lt;div&gt;Rank를 완성한다.&lt;/div&gt;" style="rounded=0;whiteSpace=wrap;html=1;" vertex="1" parent="1">
          <mxGeometry x="-293" y="-27" width="120" height="60" as="geometry" />
        </mxCell>
        <mxCell id="sssU09j3JpJJPiTPpSoP-4" value="yes" style="edgeStyle=segmentEdgeStyle;endArrow=classic;html=1;curved=0;rounded=0;endSize=8;startSize=8;fontSize=12;" edge="1" parent="1" source="sssU09j3JpJJPiTPpSoP-1" target="sssU09j3JpJJPiTPpSoP-2">
          <mxGeometry width="50" height="50" relative="1" as="geometry">
            <mxPoint x="175" y="225" as="sourcePoint" />
            <mxPoint x="225" y="175" as="targetPoint" />
          </mxGeometry>
        </mxCell>
        <mxCell id="sssU09j3JpJJPiTPpSoP-5" value="Straight가 있는가?" style="rhombus;whiteSpace=wrap;html=1;" vertex="1" parent="1">
          <mxGeometry x="-331" y="77" width="200" height="80" as="geometry" />
        </mxCell>
        <mxCell id="sssU09j3JpJJPiTPpSoP-6" value="" style="endArrow=classic;html=1;rounded=0;fontSize=12;startSize=8;endSize=8;curved=1;" edge="1" parent="1" source="sssU09j3JpJJPiTPpSoP-2" target="sssU09j3JpJJPiTPpSoP-5">
          <mxGeometry width="50" height="50" relative="1" as="geometry">
            <mxPoint x="73" y="160" as="sourcePoint" />
            <mxPoint x="123" y="110" as="targetPoint" />
          </mxGeometry>
        </mxCell>
        <mxCell id="sssU09j3JpJJPiTPpSoP-11" value="A Top인가?" style="rhombus;whiteSpace=wrap;html=1;" vertex="1" parent="1">
          <mxGeometry x="-146" y="421" width="200" height="80" as="geometry" />
        </mxCell>
        <mxCell id="sssU09j3JpJJPiTPpSoP-13" value="1. R. Flush" style="shape=document;whiteSpace=wrap;html=1;boundedLbl=1;" vertex="1" parent="1">
          <mxGeometry x="85" y="535" width="120" height="80" as="geometry" />
        </mxCell>
        <mxCell id="sssU09j3JpJJPiTPpSoP-15" value="2. S. Flush" style="shape=document;whiteSpace=wrap;html=1;boundedLbl=1;" vertex="1" parent="1">
          <mxGeometry x="-106" y="535" width="120" height="80" as="geometry" />
        </mxCell>
        <mxCell id="sssU09j3JpJJPiTPpSoP-17" value="" style="edgeStyle=segmentEdgeStyle;endArrow=classic;html=1;curved=0;rounded=0;endSize=8;startSize=8;fontSize=12;" edge="1" parent="1" source="sssU09j3JpJJPiTPpSoP-11" target="sssU09j3JpJJPiTPpSoP-15">
          <mxGeometry width="50" height="50" relative="1" as="geometry">
            <mxPoint x="144" y="256" as="sourcePoint" />
            <mxPoint x="-50" y="-36" as="targetPoint" />
          </mxGeometry>
        </mxCell>
        <mxCell id="sssU09j3JpJJPiTPpSoP-19" value="5. Flush" style="shape=document;whiteSpace=wrap;html=1;boundedLbl=1;" vertex="1" parent="1">
          <mxGeometry x="-297" y="535" width="120" height="80" as="geometry" />
        </mxCell>
        <mxCell id="sssU09j3JpJJPiTPpSoP-20" value="" style="edgeStyle=segmentEdgeStyle;endArrow=classic;html=1;curved=0;rounded=0;endSize=8;startSize=8;fontSize=12;" edge="1" parent="1" source="sssU09j3JpJJPiTPpSoP-5" target="sssU09j3JpJJPiTPpSoP-19">
          <mxGeometry width="50" height="50" relative="1" as="geometry">
            <mxPoint x="50" y="300" as="sourcePoint" />
            <mxPoint x="82" y="460" as="targetPoint" />
          </mxGeometry>
        </mxCell>
        <mxCell id="sssU09j3JpJJPiTPpSoP-25" value="" style="edgeStyle=none;curved=1;rounded=0;orthogonalLoop=1;jettySize=auto;html=1;fontSize=12;startSize=8;endSize=8;" edge="1" parent="1" source="sssU09j3JpJJPiTPpSoP-22" target="sssU09j3JpJJPiTPpSoP-24">
          <mxGeometry relative="1" as="geometry" />
        </mxCell>
        <mxCell id="sssU09j3JpJJPiTPpSoP-22" value="Four Card 인가?" style="rhombus;whiteSpace=wrap;html=1;" vertex="1" parent="1">
          <mxGeometry x="235" y="192" width="200" height="80" as="geometry" />
        </mxCell>
        <mxCell id="sssU09j3JpJJPiTPpSoP-27" value="" style="edgeStyle=none;curved=1;rounded=0;orthogonalLoop=1;jettySize=auto;html=1;fontSize=12;startSize=8;endSize=8;" edge="1" parent="1" source="sssU09j3JpJJPiTPpSoP-24" target="sssU09j3JpJJPiTPpSoP-26">
          <mxGeometry relative="1" as="geometry" />
        </mxCell>
        <mxCell id="sssU09j3JpJJPiTPpSoP-38" value="yes" style="edgeStyle=elbowEdgeStyle;rounded=0;orthogonalLoop=1;jettySize=auto;html=1;fontSize=12;startSize=8;endSize=8;" edge="1" parent="1" source="sssU09j3JpJJPiTPpSoP-24" target="sssU09j3JpJJPiTPpSoP-36">
          <mxGeometry relative="1" as="geometry" />
        </mxCell>
        <mxCell id="sssU09j3JpJJPiTPpSoP-24" value="Set이 있는가?" style="rhombus;whiteSpace=wrap;html=1;" vertex="1" parent="1">
          <mxGeometry x="235" y="306" width="200" height="80" as="geometry" />
        </mxCell>
        <mxCell id="sssU09j3JpJJPiTPpSoP-40" value="" style="edgeStyle=none;curved=1;rounded=0;orthogonalLoop=1;jettySize=auto;html=1;fontSize=12;startSize=8;endSize=8;" edge="1" parent="1" source="sssU09j3JpJJPiTPpSoP-26" target="sssU09j3JpJJPiTPpSoP-39">
          <mxGeometry relative="1" as="geometry" />
        </mxCell>
        <mxCell id="sssU09j3JpJJPiTPpSoP-26" value="Pair가 있는가?" style="rhombus;whiteSpace=wrap;html=1;" vertex="1" parent="1">
          <mxGeometry x="235" y="421" width="200" height="80" as="geometry" />
        </mxCell>
        <mxCell id="sssU09j3JpJJPiTPpSoP-31" value="" style="edgeStyle=none;curved=1;rounded=0;orthogonalLoop=1;jettySize=auto;html=1;fontSize=12;startSize=8;endSize=8;" edge="1" parent="1" source="sssU09j3JpJJPiTPpSoP-28" target="sssU09j3JpJJPiTPpSoP-30">
          <mxGeometry relative="1" as="geometry" />
        </mxCell>
        <mxCell id="sssU09j3JpJJPiTPpSoP-28" value="또 다른 Pair가 있는가?" style="rhombus;whiteSpace=wrap;html=1;" vertex="1" parent="1">
          <mxGeometry x="501" y="421" width="200" height="80" as="geometry" />
        </mxCell>
        <mxCell id="sssU09j3JpJJPiTPpSoP-29" value="yes" style="edgeStyle=none;curved=1;rounded=0;orthogonalLoop=1;jettySize=auto;html=1;fontSize=12;startSize=8;endSize=8;" edge="1" parent="1" source="sssU09j3JpJJPiTPpSoP-26" target="sssU09j3JpJJPiTPpSoP-28">
          <mxGeometry relative="1" as="geometry">
            <mxPoint x="309" y="168" as="sourcePoint" />
            <mxPoint x="309" y="223" as="targetPoint" />
          </mxGeometry>
        </mxCell>
        <mxCell id="sssU09j3JpJJPiTPpSoP-30" value="9. One pair" style="shape=document;whiteSpace=wrap;html=1;boundedLbl=1;" vertex="1" parent="1">
          <mxGeometry x="541" y="535" width="120" height="80" as="geometry" />
        </mxCell>
        <mxCell id="sssU09j3JpJJPiTPpSoP-32" value="8. Two pair" style="shape=document;whiteSpace=wrap;html=1;boundedLbl=1;" vertex="1" parent="1">
          <mxGeometry x="732" y="535" width="120" height="80" as="geometry" />
        </mxCell>
        <mxCell id="sssU09j3JpJJPiTPpSoP-33" value="yes" style="edgeStyle=segmentEdgeStyle;endArrow=classic;html=1;curved=0;rounded=0;endSize=8;startSize=8;fontSize=12;" edge="1" parent="1" source="sssU09j3JpJJPiTPpSoP-28" target="sssU09j3JpJJPiTPpSoP-32">
          <mxGeometry width="50" height="50" relative="1" as="geometry">
            <mxPoint x="50" y="300" as="sourcePoint" />
            <mxPoint x="82" y="460" as="targetPoint" />
          </mxGeometry>
        </mxCell>
        <mxCell id="sssU09j3JpJJPiTPpSoP-34" value="3. Four of card" style="shape=document;whiteSpace=wrap;html=1;boundedLbl=1;" vertex="1" parent="1">
          <mxGeometry x="85" y="306" width="120" height="80" as="geometry" />
        </mxCell>
        <mxCell id="sssU09j3JpJJPiTPpSoP-35" value="yes" style="edgeStyle=segmentEdgeStyle;endArrow=classic;html=1;curved=0;rounded=0;endSize=8;startSize=8;fontSize=12;entryX=0.5;entryY=0;entryDx=0;entryDy=0;" edge="1" parent="1" source="sssU09j3JpJJPiTPpSoP-22" target="sssU09j3JpJJPiTPpSoP-34">
          <mxGeometry width="50" height="50" relative="1" as="geometry">
            <mxPoint x="409" y="378" as="sourcePoint" />
            <mxPoint x="446" y="447" as="targetPoint" />
          </mxGeometry>
        </mxCell>
        <mxCell id="sssU09j3JpJJPiTPpSoP-50" value="" style="edgeStyle=none;curved=1;rounded=0;orthogonalLoop=1;jettySize=auto;html=1;fontSize=12;startSize=8;endSize=8;" edge="1" parent="1" source="sssU09j3JpJJPiTPpSoP-36" target="sssU09j3JpJJPiTPpSoP-49">
          <mxGeometry relative="1" as="geometry" />
        </mxCell>
        <mxCell id="sssU09j3JpJJPiTPpSoP-36" value="Pair가 있는가?" style="rhombus;whiteSpace=wrap;html=1;" vertex="1" parent="1">
          <mxGeometry x="501" y="192" width="200" height="80" as="geometry" />
        </mxCell>
        <mxCell id="sssU09j3JpJJPiTPpSoP-39" value="10. High card" style="shape=document;whiteSpace=wrap;html=1;boundedLbl=1;" vertex="1" parent="1">
          <mxGeometry x="275" y="535" width="120" height="80" as="geometry" />
        </mxCell>
        <mxCell id="sssU09j3JpJJPiTPpSoP-43" value="" style="edgeStyle=none;curved=1;rounded=0;orthogonalLoop=1;jettySize=auto;html=1;fontSize=12;startSize=8;endSize=8;entryX=0.5;entryY=0;entryDx=0;entryDy=0;" edge="1" parent="1" source="sssU09j3JpJJPiTPpSoP-41" target="sssU09j3JpJJPiTPpSoP-52">
          <mxGeometry relative="1" as="geometry" />
        </mxCell>
        <mxCell id="sssU09j3JpJJPiTPpSoP-41" value="value를&lt;div&gt;내림차순으로&lt;/div&gt;&lt;div&gt;정렬한다&lt;/div&gt;" style="rounded=0;whiteSpace=wrap;html=1;" vertex="1" parent="1">
          <mxGeometry x="275" y="-27" width="120" height="60" as="geometry" />
        </mxCell>
        <mxCell id="sssU09j3JpJJPiTPpSoP-44" value="yes" style="edgeStyle=segmentEdgeStyle;endArrow=classic;html=1;curved=0;rounded=0;endSize=8;startSize=8;fontSize=12;" edge="1" parent="1" source="sssU09j3JpJJPiTPpSoP-11" target="sssU09j3JpJJPiTPpSoP-13">
          <mxGeometry width="50" height="50" relative="1" as="geometry">
            <mxPoint x="209" y="-102" as="sourcePoint" />
            <mxPoint x="59" y="-18" as="targetPoint" />
          </mxGeometry>
        </mxCell>
        <mxCell id="sssU09j3JpJJPiTPpSoP-45" value="yes" style="edgeStyle=segmentEdgeStyle;endArrow=classic;html=1;curved=0;rounded=0;endSize=8;startSize=8;fontSize=12;" edge="1" parent="1" source="sssU09j3JpJJPiTPpSoP-5" target="sssU09j3JpJJPiTPpSoP-11">
          <mxGeometry width="50" height="50" relative="1" as="geometry">
            <mxPoint x="209" y="-102" as="sourcePoint" />
            <mxPoint x="59" y="-18" as="targetPoint" />
          </mxGeometry>
        </mxCell>
        <mxCell id="sssU09j3JpJJPiTPpSoP-46" value="4. Full house" style="shape=document;whiteSpace=wrap;html=1;boundedLbl=1;" vertex="1" parent="1">
          <mxGeometry x="732" y="306" width="120" height="80" as="geometry" />
        </mxCell>
        <mxCell id="sssU09j3JpJJPiTPpSoP-49" value="7. Three of card" style="shape=document;whiteSpace=wrap;html=1;boundedLbl=1;" vertex="1" parent="1">
          <mxGeometry x="541" y="306" width="120" height="80" as="geometry" />
        </mxCell>
        <mxCell id="sssU09j3JpJJPiTPpSoP-51" value="yes" style="edgeStyle=segmentEdgeStyle;endArrow=classic;html=1;curved=0;rounded=0;endSize=8;startSize=8;fontSize=12;" edge="1" parent="1" source="sssU09j3JpJJPiTPpSoP-36" target="sssU09j3JpJJPiTPpSoP-46">
          <mxGeometry width="50" height="50" relative="1" as="geometry">
            <mxPoint x="658" y="354" as="sourcePoint" />
            <mxPoint x="706" y="428" as="targetPoint" />
          </mxGeometry>
        </mxCell>
        <mxCell id="sssU09j3JpJJPiTPpSoP-53" value="" style="edgeStyle=none;curved=1;rounded=0;orthogonalLoop=1;jettySize=auto;html=1;fontSize=12;startSize=8;endSize=8;" edge="1" parent="1" source="sssU09j3JpJJPiTPpSoP-52" target="sssU09j3JpJJPiTPpSoP-22">
          <mxGeometry relative="1" as="geometry">
            <mxPoint x="368" y="170" as="targetPoint" />
          </mxGeometry>
        </mxCell>
        <mxCell id="sssU09j3JpJJPiTPpSoP-55" value="" style="edgeStyle=none;curved=1;rounded=0;orthogonalLoop=1;jettySize=auto;html=1;fontSize=12;startSize=8;endSize=8;" edge="1" parent="1" source="sssU09j3JpJJPiTPpSoP-52" target="sssU09j3JpJJPiTPpSoP-54">
          <mxGeometry relative="1" as="geometry" />
        </mxCell>
        <mxCell id="sssU09j3JpJJPiTPpSoP-52" value="Straight가 있는가?" style="rhombus;whiteSpace=wrap;html=1;" vertex="1" parent="1">
          <mxGeometry x="235" y="77" width="200" height="80" as="geometry" />
        </mxCell>
        <mxCell id="sssU09j3JpJJPiTPpSoP-54" value="6. Straight" style="shape=document;whiteSpace=wrap;html=1;boundedLbl=1;" vertex="1" parent="1">
          <mxGeometry x="541" y="77" width="120" height="80" as="geometry" />
        </mxCell>
      </root>
    </mxGraphModel>
  </diagram>
</mxfile>
